<?xml version="1.0" standalone="no"?><!DOCTYPE svg PUBLIC "-//W3C//DTD SVG 1.1//EN" "http://www.w3.org/Graphics/SVG/1.1/DTD/svg11.dtd"><svg t="1711346881356" class="icon" viewBox="0 0 1024 1024" version="1.1" xmlns="http://www.w3.org/2000/svg" p-id="1117" xmlns:xlink="http://www.w3.org/1999/xlink" width="200" height="200"><path d="M900.46 443.43H824a14.93 14.93 0 0 0-14.75 12.67L782.29 345c-6.84-28.68-37.39-65.33-75.79-70.51a1668.57 1668.57 0 0 0-389.81 0c-34.88 5.18-68.36 43.39-75.79 76.62l-26 102.76a14.94 14.94 0 0 0-14.11-10.08h-76.45a14.94 14.94 0 0 0-14.94 14.94V484a14.93 14.93 0 0 0 13.07 14.82l64.24 8.18c-11.52 7.92-19.26 20-20.29 33.8L147.75 656h-0.28v94.3a21.81 21.81 0 0 0 21.81 21.81h16.95v57.1a25.11 25.11 0 0 0 25.1 25.11h83a25.11 25.11 0 0 0 25.11-25.11v-57.1h384.9v57.1a25.11 25.11 0 0 0 25.11 25.11h83a25.11 25.11 0 0 0 25.11-25.11v-57.1h16.36a21.82 21.82 0 0 0 21.82-21.82V656h-0.27l-18.7-115.24c-1-13.9-8.89-26-20.53-33.95l66.1-8.36a14.93 14.93 0 0 0 13.06-14.82v-25.26a14.94 14.94 0 0 0-14.94-14.94zM252.82 706.34a47.82 47.82 0 1 1 47.82-47.82 47.82 47.82 0 0 1-47.82 47.82z m35.47-215.26a19.58 19.58 0 0 1-19.19-23.5l17.62-86.26c6.18-27.65 31.6-49.28 60.62-53.59h2.45a1367 1367 0 0 1 321.93 0h-2.44c32 4.31 57.38 23.63 63.07 47.49L754 466.9a19.67 19.67 0 0 1-19.15 24.18z m482.64 215.26a47.82 47.82 0 1 1 47.83-47.82 47.82 47.82 0 0 1-47.83 47.82z" p-id="1118" data-spm-anchor-id="a313x.collections_detail.0.i1.5d873a81zwTotb" class="selected" fill="#4c917d"></path><path d="M609.69 238.93L599 195c-2.19-9.18-12-20.91-24.26-22.57a533.34 533.34 0 0 0-124.75 0c-11.16 1.66-21.88 13.88-24.26 24.52l-10.62 42a1668.42 1668.42 0 0 1 194.58-0.02z" fill="#86e1cc" p-id="1119" data-spm-anchor-id="a313x.collections_detail.0.i2.5d873a81zwTotb" class=""></path></svg>