<?xml version="1.0" standalone="no"?><!DOCTYPE svg PUBLIC "-//W3C//DTD SVG 1.1//EN" "http://www.w3.org/Graphics/SVG/1.1/DTD/svg11.dtd"><svg t="1711346775289" class="icon" viewBox="0 0 1024 1024" version="1.1" xmlns="http://www.w3.org/2000/svg" p-id="1332" data-spm-anchor-id="a313x.collections_detail.0.i9.5d873a81rvAJFc" xmlns:xlink="http://www.w3.org/1999/xlink" width="200" height="200"><path d="M700.85 570.93a138.6 138.6 0 0 1-38.46-126.85H288.21a19.58 19.58 0 0 1-19.21-23.5l17.62-86.26c6.19-27.65 31.6-49.28 60.63-53.59h2.44a1367.08 1367.08 0 0 1 321.94 0h-2.44c31.95 4.31 57.37 23.63 63.06 47.49l4.94 20.94a50.63 50.63 0 0 1 61 31.54 49.67 49.67 0 0 1 2.61-5.92L782.21 298c-6.83-28.68-37.38-65.33-75.79-70.51a1668.57 1668.57 0 0 0-389.81 0c-34.88 5.18-68.36 43.39-75.78 76.62l-26 102.76a14.93 14.93 0 0 0-14.11-10.08h-76.46a14.93 14.93 0 0 0-14.93 14.94V437a14.92 14.92 0 0 0 13.06 14.82l64.24 8.18c-11.51 7.92-19.25 20-20.29 33.8L147.67 609h-0.27v94.3a21.8 21.8 0 0 0 21.81 21.81h16.94v57.1a25.11 25.11 0 0 0 25.11 25.11h83a25.11 25.11 0 0 0 25.1-25.11v-57.1h381.49z m-448.11 88.41a47.82 47.82 0 1 1 47.83-47.82 47.82 47.82 0 0 1-47.83 47.82z" p-id="1333" data-spm-anchor-id="a313x.collections_detail.0.i10.5d873a81rvAJFc" class="selected" fill="#4c917d"></path><path d="M900.38 470.54A101.59 101.59 0 0 0 853.67 385a6.14 6.14 0 0 0-9.47 5.16v37.58a45.51 45.51 0 0 1-45.51 45.51 45.52 45.52 0 0 1-45.51-45.51v-37.59a6.14 6.14 0 0 0-9.46-5.16 101.7 101.7 0 0 0-1.88 169.88v220.39a56.85 56.85 0 0 0 56.85 56.85 56.85 56.85 0 0 0 56.85-56.85V554.87a101.58 101.58 0 0 0 44.84-84.33z" fill="#86e1cc" p-id="1334" data-spm-anchor-id="a313x.collections_detail.0.i8.5d873a81rvAJFc" class=""></path></svg>