<?xml version="1.0" standalone="no"?><!DOCTYPE svg PUBLIC "-//W3C//DTD SVG 1.1//EN" "http://www.w3.org/Graphics/SVG/1.1/DTD/svg11.dtd"><svg t="1711346688494" class="icon" viewBox="0 0 1024 1024" version="1.1" xmlns="http://www.w3.org/2000/svg" p-id="958" xmlns:xlink="http://www.w3.org/1999/xlink" width="200" height="200"><path d="M516.87 398.83m-95.92 0a95.92 95.92 0 1 0 191.84 0 95.92 95.92 0 1 0-191.84 0Z" fill="#86e1cc" p-id="959" data-spm-anchor-id="a313x.collections_detail.0.i2.5d873a81rvAJFc" class=""></path><path d="M880.41 816.8l-51.6-151.93a48 48 0 0 0-45.48-32.59H746.8a41.18 41.18 0 0 0-33.22 16.78q-3.44 4.7-7 9.38C658.38 722 610.41 764.65 603.13 771c-24.7 23.23-55.57 36-87.07 36-31.72 0-61.94-12.48-87.42-36.09C425.1 767.65 375.71 722 326 654.57c-1.28-1.73-2.54-3.45-3.79-5.18a41.39 41.39 0 0 0-33.46-17.11h-38.34a48 48 0 0 0-45.48 32.59l-51.6 151.93a48 48 0 0 0 45.48 63.48h636.12a48 48 0 0 0 45.48-63.48z" p-id="960" data-spm-anchor-id="a313x.collections_detail.0.i1.5d873a81rvAJFc" class="selected" fill="#4c917d"></path><path d="M688.3 229a244.29 244.29 0 0 0-171.43-69.8c-133.86 0-242.51 106.74-242.51 238.55 0 163.9 185.64 333.38 185.64 333.38 35.6 33.07 80.21 30.39 112.2-0.15 0 0 187.23-160.41 187.23-333.24A236.38 236.38 0 0 0 688.3 229zM516.79 548.34a150.87 150.87 0 1 1 150.87-150.87 150.87 150.87 0 0 1-150.87 150.87z" p-id="961" data-spm-anchor-id="a313x.collections_detail.0.i0.5d873a81rvAJFc" class="selected" fill="#4c917d"></path></svg>